<?xml version="1.0" encoding="UTF-8"?>
<!DOCTYPE svg PUBLIC "-//W3C//DTD SVG 1.1//EN" "http://www.w3.org/Graphics/SVG/1.1/DTD/svg11.dtd">
<!-- Creator: CorelDRAW X7 -->
<svg xmlns="http://www.w3.org/2000/svg" xml:space="preserve" width="2.44824in" height="1.15995in" version="1.1" style="shape-rendering:geometricPrecision; text-rendering:geometricPrecision; image-rendering:optimizeQuality; fill-rule:evenodd; clip-rule:evenodd"
viewBox="0 0 3732 1768"
 xmlns:xlink="http://www.w3.org/1999/xlink">
 <defs>
  <style type="text/css">
   <![CDATA[
    .fil0 {fill:#E40712}
   ]]>
  </style>
 </defs>
 <g id="Layer_x0020_1">
  <metadata id="CorelCorpID_0Corel-Layer"/>
  <path class="fil0" d="M1219 1217c0,-19 4,-51 10,-106 7,-56 43,-216 183,-305 -6,0 -17,-4 -23,-4 -19,0 -77,-5 -158,25 32,-49 152,-128 196,-151 5,-4 11,-6 13,-6 -51,-164 -160,-299 -313,-377 -96,-52 -196,-77 -330,-81l0 0 -269 0c-215,0 -313,-5 -390,-20 -63,-17 -121,-51 -121,-51l-17 -10 4 19c0,6 17,151 190,279 32,25 57,49 57,132l0 777c0,84 -17,107 -55,128 -43,26 -128,75 -128,77l-30 17 701 0c196,0 320,-32 452,-121 25,-17 49,-37 68,-52 -13,-100 4,-189 17,-240 -2,-5 -38,27 -57,70zm-448 15l-151 0 0 -690 151 0c198,0 311,125 311,345 0,221 -113,345 -311,345zm1943 173c13,-26 19,-58 19,-90 0,-32 -10,-64 -23,-89l38 6c26,4 75,36 75,83 0,58 -58,83 -109,90zm741 31c-134,90 -255,122 -451,122l-7 0c32,-38 49,-90 49,-141 0,-74 -36,-140 -93,-185l83 0c198,0 311,-126 311,-345 0,-222 -113,-345 -311,-345l-152 0 0 87c-23,-4 -42,-6 -64,-6 -36,0 -76,6 -87,12 43,-36 90,-51 122,-57 -141,-32 -273,49 -292,70 17,-36 49,-68 70,-89 -45,17 -87,38 -121,62l0 -58c0,-87 -24,-109 -58,-132 -172,-126 -190,-273 -190,-279l-4 -19 17 10c0,0 58,39 122,52 74,17 177,19 390,19l268 0 0 0c134,6 234,30 330,81 217,113 345,332 345,588 0,157 -51,311 -140,419 -30,51 -79,96 -137,134zm-677 -264c-49,0 -100,11 -100,11 -11,-11 -75,-58 -102,-64 51,55 36,113 23,132 -11,17 -30,26 -45,26 -13,0 -25,-5 -38,-13l0 -313c13,-17 25,-36 42,-51 37,-43 94,-69 152,-69 36,0 70,11 93,30l20 13 17 -17c10,-11 32,-19 55,-30l0 369c-40,-17 -77,-24 -117,-24zm-64 -434c-119,-17 -300,64 -394,179 19,-77 102,-203 204,-260 0,0 -51,64 -29,74 32,17 115,-115 223,-119 0,0 -81,38 -64,68 13,19 69,-25 160,-25 115,0 217,70 266,125 -81,-23 -230,17 -274,56 -69,-51 -199,-45 -273,42 -94,107 -151,230 -166,269 -32,-26 -62,-49 -81,-64 -17,-13 -32,-19 -49,-26 89,-125 268,-311 477,-319zm-1248 -360c-13,-152 57,-235 89,-269 70,-74 166,-115 311,-108 224,12 332,166 332,330 0,87 -44,202 -108,275 -4,-5 -11,-11 -13,-13 -43,-38 -102,-87 -141,-145 77,-113 45,-288 -93,-288 -88,0 -158,90 -128,199 -13,49 -19,112 -11,159 -100,-51 -132,-119 -151,-179 -26,51 -43,122 -23,190 4,6 -54,-45 -64,-151zm57 272c-10,37 -140,75 -204,139 96,-19 140,-4 157,36 11,30 -4,68 -10,113 32,-36 140,-109 221,-126 -19,-6 -68,-17 -87,-17 57,-68 185,-89 255,-74 -44,-5 -134,23 -170,51 32,6 62,13 87,23 -42,17 -95,68 -115,122 56,-39 167,-30 186,51 12,55 -26,102 -45,113 17,4 55,0 70,-11 -6,23 -38,62 -62,68 58,0 141,-38 165,-93 0,0 -37,12 -52,-5 -17,-17 7,-87 7,-87 0,0 -24,30 -43,13 -19,-19 7,-83 17,-96 -19,-7 -70,-13 -94,-11 64,-23 209,-36 224,-6 13,23 -19,68 -19,68 26,-4 100,0 126,30 25,32 10,74 10,74 58,-29 109,-119 96,-208 -6,19 -32,49 -57,55 4,-30 -20,-45 -39,-51 11,-56 -12,-126 -93,-203 -69,-68 -196,-157 -190,-274 -19,25 -36,100 -17,140 55,64 173,134 202,243 -51,-128 -300,-228 -292,-403 -31,32 -51,158 -25,222 49,30 89,77 96,121 -45,-102 -228,-121 -279,-242 -13,44 -7,100 19,134 0,0 -45,-17 -141,-13 34,11 103,68 96,104zm518 147c-56,0 -70,-42 -83,-87 64,28 83,87 83,87zm699 835c38,37 132,62 178,39 -29,51 -164,121 -287,89 -119,-32 -173,-145 -173,-217 -57,58 -42,147 0,185 -44,-12 -115,-61 -127,-147 -11,-74 31,-159 -45,-228 -45,-42 -120,-100 -164,-134 -96,-74 -62,-132 -81,-170 -17,-32 -58,-49 -81,-77 -26,-30 -24,-70 -11,-94 -4,32 19,58 51,71 37,12 64,4 96,19 36,23 19,77 45,100 23,17 83,-6 132,36 51,43 164,134 211,173 87,70 177,-11 147,-94 89,51 100,198 25,249 71,17 196,-17 196,-115 0,-62 -57,-106 -95,-113 144,-13 268,88 268,215 -4,130 -136,233 -285,213zm-478 -262c5,5 7,7 11,11 -77,158 -222,358 -496,358 -100,0 -190,-36 -254,-83 -23,-17 -42,-36 -57,-58l0 0 0 0c-11,-12 -20,-23 -30,-36 -13,-17 -24,-17 -30,-6 -13,19 11,81 11,81 -218,-205 -107,-505 -103,-518 13,-38 0,-45 -12,-38 -20,6 -43,38 -43,38 17,-183 185,-294 185,-294l5 4c19,30 -11,64 -13,179 32,-44 157,-132 228,-157 -24,29 -43,70 -43,132 0,0 51,-58 115,-58 17,0 32,4 45,11 -243,236 -141,530 64,530 115,0 230,-128 279,-215 36,32 96,83 138,119z"/>
 </g>
</svg>
